<svg id="Layer_1" enable-background="new 0 0 511.999 511.999" height="512" viewBox="0 0 511.999 511.999" width="512" xmlns="http://www.w3.org/2000/svg"><g><g><g clip-rule="evenodd" fill-rule="evenodd"><path d="m206.001 75.999h99.998v40.003h40v-60.002c0-10.999-9-20-20-20h-139.999c-11 0-20 9-20 20v60.003h40v-40.004z" fill="#ddb9a3"/><path d="m86.001 296.004v-180.002h-76.001v140.002c0 13.015 6.3 24.629 16 31.946 6.697 5.051 15.015 8.054 24 8.054z" fill="#e8d0c1"/><path d="m86.001 116.002v180.002 20.003c0 21.998 18 39.999 40 39.999s40-18 40-39.999v-20.003-180.002z" fill="#ddb9a3"/><path d="m166.001 116.002v180.002h179.998v-180.002h-40-99.998z" fill="#e8d0c1"/><path d="m345.999 116.002v180.002 20.003c0 21.998 18 39.999 40 39.999s40-18 40-39.999v-20.003-180.002z" fill="#ddb9a3"/><path d="m425.998 116.002v180.002h36.002c8.985 0 17.303-3.003 24-8.054 9.7-7.317 16-18.932 16-31.946v-140.002z" fill="#e8d0c1"/><path d="m385.999 356.006c-22.001 0-40-18.001-40-39.999v-20.003h-179.998v20.003c0 21.999-18 39.999-40 39.999-22.001 0-40-18.001-40-39.999v-20.003h-36.001c-8.985 0-17.303-3.003-24-8.054v168.049c0 11 9 20 20 20h420c11 0 20-9 20-20v-168.05c-6.697 5.052-15.015 8.054-24 8.054h-36.001v20.003c-.001 22-18 40-40 40z" fill="#f4e9e2"/></g><g><path d="m126.001 326.004c-5.522 0-10.004-4.477-10.004-10s4.474-10 9.996-10h.008c5.522 0 10 4.477 10 10s-4.478 10-10 10z" fill="#f4e9e2"/></g><g><path d="m386.003 326.004c-5.522 0-10.004-4.477-10.004-10s4.474-10 9.996-10h.008c5.522 0 10 4.477 10 10s-4.478 10-10 10z" fill="#f4e9e2"/></g></g><path d="m501.999 106.002h-146.001v-50.002c0-16.542-13.457-30-29.999-30h-139.999c-16.542 0-29.999 13.458-29.999 30v50.002h-146.001c-5.522 0-10 4.477-10 10v140.002c0 14.449 6.167 27.478 15.999 36.615v163.381c0 16.542 13.458 30 30 30h420.001c16.542 0 30-13.458 30-30v-163.381c9.832-9.137 15.999-22.166 15.999-36.615v-140.002c0-5.523-4.478-10-10-10zm-10 150.002c0 16.542-13.457 30-29.999 30h-26.001-.001v-160.002h56.001zm-156.001 30h-159.997v-160.002h159.997zm-239.997-160.002h60v190.004c0 16.542-13.458 30-30.001 30-16.541 0-29.999-13.458-29.999-30zm199.998-20h-79.998v-20.002h79.998zm59.999 20h60v190.004c0 16.542-13.458 30-30 30s-30-13.458-30-30zm-169.998-80.002h139.999c5.514 0 9.999 4.486 9.999 10v50.002h-19.999v-30.002c0-5.523-4.478-10-10-10h-99.998c-5.522 0-10 4.477-10 10v30.002h-20v-50.002c0-5.515 4.485-10 9.999-10zm-166 80.002h56.001v160.002h-.001-26c-16.542 0-30-13.458-30-30zm456 329.998c0 5.514-4.486 10-10 10h-420.001c-5.514 0-10-4.486-10-10v-152.005c4.446 1.299 9.141 2.009 14.001 2.009h26 .001v10.003c0 27.57 22.43 50 50 50s50-22.43 50-50v-10.002h159.997v10.002c0 27.57 22.431 50 50.001 50 27.569 0 49.999-22.43 49.999-50v-10.003h.001 26.001c4.86 0 9.554-.71 14-2.009z" fill="#c68a65"/></g></svg>