<svg id="Layer_1" enable-background="new 0 0 512.002 512.002" height="512" viewBox="0 0 512.002 512.002" width="512" xmlns="http://www.w3.org/2000/svg"><g clip-rule="evenodd" fill-rule="evenodd"><path d="m482.002 26.001h-452.002c-16.542 0-30 13.458-30 30v320c0 16.542 13.458 30 30 30h163.194l-16.895 67.575c-.747 2.987-.076 6.152 1.819 8.58 1.895 2.427 4.803 3.846 7.882 3.846h140.001c3.079 0 5.987-1.419 7.882-3.846 1.896-2.427 2.566-5.592 1.819-8.58l-16.894-67.575h163.194c16.542 0 30-13.458 30-30v-320c0-16.542-13.458-30-30-30zm-462.002 60.001h472.001.001v259.997h-.001-472-.001zm10-40.001h452.002c5.514 0 10 4.486 10 10v10.001h-.001-472-.001v-10.001c0-5.514 4.486-10 10-10zm283.193 420h-114.385l15.001-60h84.384zm168.809-80h-452.002c-5.514 0-10-4.486-10-10v-10.002h.001 472 .001v10.002c0 5.514-4.486 10-10 10z"/><path d="m77.073 253.034 64.503-65.165 33.539 33.883c3.883 3.905 10.197 3.922 14.102.039l70.785-71.511v8.096c0 5.523 4.477 10 10 10s10-4.477 10-10v-32.373c0-5.523-4.477-10-10-10h-32.373c-5.523 0-10 4.477-10 10s4.477 10 10 10h8.445l-63.888 64.544-33.578-33.922c-3.905-3.883-10.219-3.866-14.102.039l-71.573 72.308c-3.883 3.905-3.866 10.219.039 14.102 3.904 3.882 10.218 3.864 14.101-.04z"/><path d="m330.004 186h111.997c5.522 0 10-4.477 10-10s-4.478-10-10-10h-111.997c-5.523 0-10 4.477-10 10s4.477 10 10 10z"/><path d="m330.004 266.001h55.999c5.523 0 10-4.477 10-10s-4.477-10-10-10h-55.999c-5.523 0-10 4.477-10 10 0 5.522 4.477 10 10 10z"/><path d="m330.004 226.001h111.997c5.522 0 10-4.477 10-10s-4.478-10-10-10h-111.997c-5.523 0-10 4.478-10 10s4.477 10 10 10z"/><path d="m265.002 286.003h-190c-8.284 0-15 6.716-15 15 0 8.284 6.716 15 15 15h190c8.284 0 15-6.716 15-15 0-8.285-6.716-15-15-15z"/></g></svg>