<svg height="480pt" viewBox="-8 0 480 480.00679" width="480pt" xmlns="http://www.w3.org/2000/svg"><path d="m80.164062 375.839844-.160156.160156v42.878906c-44.878906-35.628906-71.328125-89.578125-72-146.878906v-52c.285156 59.960938 26.621094 116.835938 72.160156 155.839844zm0 0" fill="#005e9c"/><path d="m312.003906 456 .878906 2.480469c-26.015624 8.992187-53.355468 13.558593-80.878906 13.519531-55.292968.445312-109.023437-18.332031-152-53.121094v-42.878906l.160156-.160156c64.054688 54.765625 152.605469 70.867187 231.839844 42.160156zm0 0" fill="#4e4e4e"/><path d="m312.003906 418c84.160156-30.398438 144-107.601562 144-198v52c0 85.039062-59.359375 157.601562-143.121094 186.480469l-.878906-2.480469zm0 0" fill="#2d8e43"/><path d="m312.003906 416v2c-79.234375 28.707031-167.785156 12.605469-231.839844-42.160156l151.839844-151.839844zm0 0" fill="#494342"/><path d="m102.402344 48 129.601562 176-151.839844 151.839844c-45.539062-39.003906-71.875-95.878906-72.160156-155.839844.542969-69.632812 35.804688-134.398438 94-172.640625zm0 0" fill="#168fba"/><path d="m455.523438 207.441406c.320312 4.160156.480468 8.320313.480468 12.558594 0 90.398438-59.839844 167.601562-144 198v-2l-80-192 216-16zm0 0" fill="#6fb944"/><path d="m232.003906 8v216l-129.601562-176-.398438-.640625c38.417969-25.832031 83.703125-39.542969 130-39.359375zm0 0" fill="#ffcb5a"/><path d="m455.523438 207.441406-7.519532.558594-216 16v-216c119.199219 0 216.71875 88.160156 223.519532 199.441406zm0 0" fill="#ad2943"/><path d="m73.828125 334.929688c-48.851563-58.132813-55.550781-140.8125-16.703125-206.050782l13.757812 8.160156c-35.429687 59.453126-29.289062 134.828126 15.296876 187.761719zm0 0" fill="#005e9c"/><path d="m84.738281 116.992188-12.511719-9.984376c5.621094-7.03125 11.738282-13.652343 18.304688-19.808593l10.945312 11.671875c-6.007812 5.628906-11.601562 11.6875-16.738281 18.121094zm0 0" fill="#005e9c"/><path d="m232.003906 0c-123.785156 0-225.214844 92.40625-231.664062 208.28125-.171875.539062-.2851565 1.097656-.33593775 1.664062v62.054688c.67578175 58.292969 27.01953175 113.320312 71.99999975 150.398438v1.601562h1.863282c44.527343 36.609375 100.492187 56.429688 158.136718 56 127.925782 0 232-93.304688 232-208v-58.664062c-.046875-.34375-.113281-.683594-.207031-1.015626-4.289063-117.761718-106.585937-212.320312-231.792969-212.320312zm85.113282 407.464844-73.464844-176.265625 204.246094-15.199219c0 1.320312.105468 2.632812.105468 4 0 83.953125-53.992187 156.207031-130.886718 187.464844zm-93.113282-207.816406-110.511718-150.046876c33.273437-20.628906 71.382812-32.148437 110.511718-33.410156zm5.207032 38.457031 72.847656 174.824219c-22.625 7.34375-46.265625 11.078124-70.054688 11.070312-50.84375.191406-100.222656-17.03125-139.921875-48.800781zm217.746093-38.050781-206.953125 15.328124v-199.191406c108.34375 3.753906 196.558594 83.175782 206.953125 183.863282zm-346.730469-141.527344 121.257813 164.671875-141.527344 141.535156c-40.515625-37.253906-63.6875-89.695313-63.953125-144.734375.527344-64.222656 31.855469-124.289062 84.222656-161.472656zm-80.046874 251.074218c12.527343 26.347657 30.140624 49.960938 51.824218 69.476563v21.761719c-25.730468-24.765625-43.730468-56.457032-51.824218-91.238282zm67.824218 105.351563v-22.648437c41.542969 31.125 92.09375 47.867187 144 47.695312 24.410156.011719 48.683594-3.660156 72-10.894531v23.886719c-23.296875 7.320312-47.578125 11.035156-72 11.007812-52.164062.386719-102.917968-16.902344-144-49.046875zm232 32.320313v-23.761719c54.28125-20.808594 98.570313-61.550781 123.824219-113.910157-13.808594 61.597657-60.890625 112.605469-123.824219 137.671876zm0 0"/><path d="m73.828125 334.9375 12.34375-10.136719c-44.578125-52.953125-50.714844-128.335937-15.289063-187.800781l-13.757812-8.160156c-38.851562 65.253906-32.148438 147.949218 16.703125 206.097656zm0 0"/><path d="m101.484375 98.878906-10.96875-11.640625c-6.535156 6.15625-12.636719 12.753907-18.257813 19.753907l12.472657 10.015624c5.164062-6.417968 10.761719-12.476562 16.753906-18.128906zm0 0"/></svg>